<?xml version="1.0" encoding="UTF-8" standalone="no"?><!DOCTYPE svg PUBLIC "-//W3C//DTD SVG 1.1//EN" "http://www.w3.org/Graphics/SVG/1.1/DTD/svg11.dtd"><svg width="100%" height="100%" viewBox="0 0 1844 1670" version="1.1" xmlns="http://www.w3.org/2000/svg" xmlns:xlink="http://www.w3.org/1999/xlink" xml:space="preserve" xmlns:serif="http://www.serif.com/" style="fill-rule:evenodd;clip-rule:evenodd;stroke-linejoin:round;stroke-miterlimit:2;"><path d="M272.61,1278.27c-93.521,19.986 -181.004,-8.336 -225.962,-66.93c-59.641,-77.762 -44.307,-208.897 131.484,-351.156c16.38,23.239 31.712,48.61 45.44,75.447c54.121,105.865 82.836,234.223 49.038,342.639Z" style="fill:#c24914;fill-rule:nonzero;"/><path d="M213.087,1269.45c-76.149,-0.009 -141.817,-34.089 -169.351,-91.772c-2.667,-5.584 -4.932,-11.296 -6.795,-17.126c-1.133,-43.819 14.693,-94.232 53.259,-148.39c0.913,4.054 1.907,8.117 2.986,12.161c15.381,57.82 45.874,108.134 85.857,141.676c20.898,17.537 43.153,29.516 65.673,35.638c-0.583,7.388 -0.875,14.776 -0.875,22.182c0,14.585 1.121,29.07 3.325,43.399c-11.523,1.494 -22.911,2.232 -34.079,2.232Z" style="fill:#fc8621;fill-rule:nonzero;"/><path d="M174.971,882.535c-121.663,102.95 -170.677,212.523 -131.235,295.14c33.138,69.426 121.488,104.663 216.913,87.445c36.649,-131.919 -20.816,-284.49 -85.678,-382.585Zm38.316,417.293c-87.846,0 -164.32,-40.611 -196.992,-109.053c-22.695,-47.535 -53.284,-176.056 152.272,-342.402c3.27,-2.642 7.506,-3.817 11.661,-3.234c4.172,0.574 7.907,2.861 10.33,6.295c73.881,104.845 143.507,280.719 96.582,431.341c-1.63,5.247 -5.967,9.201 -11.332,10.349c-21.181,4.527 -42.16,6.704 -62.521,6.704Z" style="fill:#232323;fill-rule:nonzero;"/><path d="M882.913,12.943l-47.863,12.734c-29.087,7.738 -46.396,37.592 -38.653,66.68l15.022,56.474l159.513,-42.438l-13.337,-50.158c-8.672,-32.576 -42.105,-51.959 -74.682,-43.292Z" style="fill:#fc8621;fill-rule:nonzero;"/><path d="M882.913,12.944l0.046,-0l-0.046,-0Zm15.778,8.785c-4.327,-0 -8.69,0.567 -12.981,1.71l-47.863,12.733c-23.257,6.185 -37.141,30.136 -30.955,53.394l12.234,45.978l138.524,-36.853l-10.549,-39.664c-3.453,-12.951 -11.733,-23.787 -23.33,-30.508c-7.744,-4.493 -16.352,-6.79 -25.08,-6.79Zm-87.281,137.964c-4.801,0 -9.192,-3.209 -10.485,-8.071l-15.022,-56.474c-9.265,-34.831 11.533,-70.704 46.36,-79.967l47.863,-12.732c18.565,-4.941 37.933,-2.352 54.54,7.278c16.616,9.633 28.487,25.16 33.415,43.717l13.346,50.157c0.747,2.783 0.346,5.748 -1.093,8.238c-1.449,2.492 -3.827,4.308 -6.605,5.049l-159.513,42.438c-0.938,0.247 -1.877,0.367 -2.806,0.367Z" style="fill:#232323;fill-rule:nonzero;"/><path d="M1816.16,1019.83c29.908,-112.415 -9.911,-220.585 -88.93,-241.601c-79.018,-21.026 -167.32,53.065 -197.227,165.47c-29.908,112.415 9.902,220.586 88.93,241.611c79.018,21.025 167.32,-53.065 197.227,-165.48Z" style="fill:#f9e0ae;fill-rule:nonzero;"/><path d="M1593.98,917.954c17.636,-21.854 35.838,-44.21 60.17,-58.23c24.332,-14.02 56.517,-18.055 79.939,-2.56c15.787,10.449 25.516,28.332 29.652,46.807c4.145,18.465 3.262,37.678 1.622,56.535c-3.061,35.219 -8.837,70.711 -23.458,102.895c-14.63,32.185 -38.981,61.027 -71.33,75.293c-4.136,1.822 -8.454,3.416 -12.963,3.708c-16.334,1.057 -28.505,-14.421 -36.458,-28.723c-33.469,-60.207 -48.127,-133.295 -27.912,-199.141l0.738,3.416Z" style="fill:#d4ac2b;fill-rule:nonzero;"/><path d="M1816.16,1019.83l0.046,0l-0.046,0Zm-116.378,-227.69c-25.999,-0 -53.128,11.013 -78.344,32.175c-34.526,28.96 -60.999,72.961 -74.546,123.885c-13.546,50.924 -12.435,102.257 3.125,144.536c14.776,40.147 40.848,67.021 73.407,75.684c69.553,18.493 148.453,-50.176 175.847,-153.081c27.375,-102.923 -6.96,-201.71 -76.532,-220.221c-7.497,-1.995 -15.177,-2.978 -22.957,-2.978Zm-53.902,414.159c-10.541,0 -21.053,-1.33 -31.438,-4.099c-43.883,-11.67 -78.409,-46.26 -97.23,-97.384c-18.028,-48.984 -19.485,-107.797 -4.108,-165.608c15.386,-57.81 45.877,-108.124 85.86,-141.675c41.732,-35.019 88.875,-47.882 132.757,-36.203c88.211,23.467 133.669,141.448 101.338,262.991l-0,0.009c-28.532,107.223 -108.234,181.969 -187.179,181.969Z" style="fill:#232323;fill-rule:nonzero;"/><path d="M1584.52,954.731c2.068,-2.46 4.719,-4.564 6.286,-7.379c1.894,-3.417 3.334,-6.696 5.557,-9.976c4.145,-6.131 8.353,-12.252 12.717,-18.238c8.572,-11.76 17.673,-22.911 28.495,-32.695c11.096,-10.039 23.695,-19.504 37.597,-25.243c13.482,-5.566 26.737,-6.003 40.484,-1.43c7.032,2.332 13.063,5.784 19.44,9.51c3.407,1.986 5.512,4.309 8.062,7.243c2.332,2.678 5.275,4.054 7.598,6.741c1.476,1.704 4.773,0.383 4.582,-1.904c-0.228,-2.824 0.091,-6.195 -0.538,-8.909c-0.901,-3.881 -3.662,-7.316 -5.556,-10.759c-4.091,-7.443 -9.456,-12.89 -16.261,-17.901c-14.44,-10.622 -32.686,-13.227 -50.059,-10.094c-19.112,3.453 -36.266,14.868 -51.152,26.801c-13.482,10.814 -25.079,23.968 -34.899,38.152c-5.475,7.899 -9.875,16.845 -12.945,25.945c-1.503,4.437 -2.26,9.092 -3.726,13.501c-1.758,5.275 -1.749,8.773 -1.348,14.284c0.191,2.597 3.662,4.728 5.666,2.351Z" style="fill:#232323;fill-rule:nonzero;"/><path d="M1647.86,1149.9c6.25,1.33 13.009,-1.849 18.594,-4.336c5.675,-2.533 11.241,-5.256 16.68,-8.272c10.941,-6.076 21.481,-12.972 30.854,-21.298c8.773,-7.799 15.761,-16.963 21.172,-27.357c2.523,-4.865 5.493,-9.247 7.288,-14.485c1.785,-5.229 2.924,-10.759 3.197,-16.279c0.082,-1.64 -2.377,-2.323 -3.125,-0.848c-2.304,4.519 -4.627,8.992 -7.424,13.237c-2.915,4.418 -5.475,9.347 -9.183,13.137c-7.442,7.606 -15.632,14.739 -24.104,21.198c-8.901,6.778 -18.238,12.945 -28.04,18.338c-4.938,2.724 -9.939,5.329 -14.995,7.816c-4.6,2.269 -12.371,5.239 -14.521,10.295c-1.403,3.315 -0.61,7.961 3.607,8.854Z" style="fill:#232323;fill-rule:nonzero;"/><path d="M1611.65,990.231c5.275,-12.252 11.724,-24.04 19.249,-35.173c5.539,-8.189 11.815,-16.179 20.224,-21.726c8.408,-5.539 19.303,-8.363 29.051,-5.448c10.75,3.216 18.229,12.662 22.629,22.547c12.799,28.741 4.864,62.302 -9.602,90.314c-3.863,7.47 -8.208,14.795 -13.965,21.062c-10.786,11.734 -26.455,19.268 -42.762,20.543l-24.824,-92.119Z" style="fill:#f9e0ae;fill-rule:nonzero;"/><path d="M1614.9,993.465c14.029,-15.623 21.335,-39.063 39.473,-50.869c7.105,-4.628 16.835,-8.007 25.034,-4.327c7.397,3.307 12.243,11.16 15.122,18.393c7.689,19.34 4.81,40.784 -1.822,59.97c-6.304,18.219 -15.897,38.033 -33.114,48.109c-3.963,2.313 -8.053,4.09 -12.453,5.384c-5.466,1.612 -11.142,2.222 -14.412,7.533c-2.068,3.362 -2.05,6.505 0.583,9.502c4.181,4.755 9.975,4.737 15.705,3.389c20.597,-4.856 37.351,-18.274 48.2,-36.194c20.698,-34.198 34.126,-85.422 7.552,-120.304c-15.514,-20.369 -42.324,-22.219 -61.901,-6.359c-8.937,7.243 -15.887,16.717 -21.763,26.537c-6.65,11.124 -12.818,22.939 -14.02,36.002c-0.365,3.936 5.265,6.068 7.816,3.234Z" style="fill:#232323;fill-rule:nonzero;"/><path d="M110.078,1019.83c-29.907,-112.415 9.907,-220.585 88.925,-241.601c79.028,-21.026 167.329,53.065 197.237,165.47c29.907,112.415 -9.912,220.586 -88.931,241.611c-79.018,21.025 -167.329,-53.065 -197.231,-165.48Z" style="fill:#f9e0ae;fill-rule:nonzero;"/><path d="M332.252,917.954c-17.627,-21.854 -35.838,-44.21 -60.17,-58.23c-24.323,-14.02 -56.508,-18.055 -79.93,-2.56c-15.787,10.449 -25.525,28.332 -29.661,46.807c-4.136,18.465 -3.262,37.678 -1.622,56.535c3.07,35.219 8.837,70.711 23.467,102.895c14.621,32.185 38.972,61.027 71.321,75.293c4.136,1.822 8.454,3.416 12.972,3.708c16.325,1.057 28.496,-14.421 36.449,-28.723c33.469,-60.207 48.136,-133.295 27.921,-199.141l-0.747,3.416Z" style="fill:#d4ac2b;fill-rule:nonzero;"/><path d="M226.679,792.102c-7.78,0 -15.533,0.984 -23.176,3.015c-32.567,8.664 -58.632,35.538 -73.407,75.676c-15.564,42.287 -16.671,93.621 -3.124,144.545c13.546,50.924 40.019,94.915 74.536,123.875c32.768,27.494 68.752,37.87 101.31,29.206c69.572,-18.511 103.907,-117.307 76.523,-220.22c-24.369,-91.618 -89.559,-156.097 -152.662,-156.097Zm52.991,414.296c-34.134,0 -68.934,-13.81 -100.627,-40.402c-39.983,-33.542 -70.476,-83.856 -85.857,-141.676c-15.382,-57.811 -13.923,-116.624 4.106,-165.598c18.82,-51.133 53.347,-85.714 97.22,-97.393c88.174,-23.467 186.277,56.326 218.617,177.878c32.34,121.553 -13.118,239.525 -101.328,262.992c-10.559,2.815 -21.308,4.199 -32.131,4.199Z" style="fill:#232323;fill-rule:nonzero;"/><path d="M347.374,952.38c0.31,-4.145 0.966,-7.771 -0.355,-11.815c-1.366,-4.191 -2.368,-8.418 -3.653,-12.645c-2.478,-8.18 -6.067,-15.823 -10.212,-23.275c-8.226,-14.777 -20.606,-28.396 -33.223,-39.555c-26.428,-23.394 -66.693,-45.139 -101.183,-24.952c-8.071,4.719 -15.204,10.822 -20.124,18.812c-2.177,3.544 -4.828,7.388 -6.431,11.232c-1.431,3.435 -1.002,7.507 -1.303,11.178c-0.182,2.278 3.106,3.617 4.591,1.904c1.886,-2.196 3.826,-3.116 5.931,-5.001c2.569,-2.305 4.172,-5.284 7.051,-7.279c5.083,-3.516 10.941,-7.088 16.689,-9.365c13.027,-5.156 25.826,-6.741 39.373,-2.697c28.568,8.536 51.68,32.632 69.161,55.643c4.92,6.477 9.575,13.173 14.203,19.878c2.35,3.407 4.828,6.705 6.458,10.513c1.713,4.008 4.61,6.495 7.361,9.775c2.013,2.386 5.475,0.255 5.666,-2.351Z" style="fill:#232323;fill-rule:nonzero;"/><path d="M285.1,1144.09c-0.046,-7.051 -7.343,-11.67 -12.982,-14.594c-5.019,-2.587 -10.066,-5.11 -15.049,-7.771c-10.504,-5.593 -20.306,-12.125 -29.944,-19.094c-8.609,-6.222 -16.817,-13.163 -24.761,-20.196c-3.908,-3.471 -6.358,-8.172 -9.419,-12.371c-3.152,-4.309 -5.885,-8.828 -8.682,-13.364c-1.221,-1.977 -4.245,-1.13 -4.318,1.175c-0.182,5.602 0.765,11.323 2.287,16.707c1.676,5.958 5.211,10.905 7.734,16.471c5.32,11.688 13.382,21.49 23.066,29.853c10.112,8.736 21.782,15.841 33.606,22c6.213,3.234 13.064,6.878 19.823,8.7c6.568,1.776 18.693,2.55 18.639,-7.516Z" style="fill:#232323;fill-rule:nonzero;"/><path d="M314.579,990.231c-5.275,-12.252 -11.724,-24.04 -19.249,-35.173c-5.539,-8.189 -11.815,-16.179 -20.224,-21.726c-8.399,-5.539 -19.294,-8.363 -29.051,-5.448c-10.75,3.216 -18.22,12.662 -22.629,22.547c-12.799,28.741 -4.855,62.302 9.602,90.314c3.863,7.47 8.208,14.795 13.975,21.062c10.776,11.734 26.445,19.268 42.752,20.543l24.824,-92.119Z" style="fill:#f9e0ae;fill-rule:nonzero;"/><path d="M320.163,990.231c-0.182,-11.76 -5.301,-22.173 -10.813,-32.33c-5.165,-9.511 -11.323,-18.976 -18.976,-26.692c-15.186,-15.323 -39.363,-23.175 -58.649,-10.003c-17.736,12.116 -25.443,34.144 -26.855,54.796c-1.503,22.118 4.946,44.11 14.111,63.996c8.9,19.34 21.426,37.196 41.103,46.642c9.301,4.474 24.861,11.698 33.424,2.679c3.507,-3.699 3.835,-8.755 1.357,-13.118c-3.47,-6.095 -10.002,-6.605 -16.042,-8.472c-19.677,-6.095 -30.317,-22.338 -38.543,-40.175c-7.944,-17.226 -13.31,-37.623 -10.158,-56.654c1.53,-9.283 4.828,-19.267 11.542,-26.108c6.441,-6.559 14.366,-6.988 22.665,-3.653c22.757,9.137 29.708,37.131 46.296,53.037c3.426,3.289 9.62,1.002 9.538,-3.945Z" style="fill:#232323;fill-rule:nonzero;"/><path d="M1674.37,1223.81c-0,236.519 -316.366,428.189 -706.594,428.189c-390.228,-0 -706.594,-191.67 -706.594,-428.189c0,-30.636 5.33,-60.571 15.451,-89.376c33.925,-96.747 50.559,-198.458 44.419,-300.369c-0.428,-7.917 -1.02,-15.833 -1.612,-23.859c-2.697,-35.856 -2.797,-71.922 0.264,-107.787c1.886,-22.173 4.792,-43.718 8.673,-64.552c18.839,-101.702 60.571,-187.736 118.181,-257.944c123.83,-151.128 321.094,-228.711 521.218,-230.273c160.98,1.239 320.128,51.686 440.733,150.106c49.858,40.648 93.139,89.535 127.228,146.551c43.281,72.358 71.822,157.808 80.166,256.112c3.016,35.865 2.961,71.931 0.21,107.787c-0.592,8.026 -1.13,15.942 -1.613,23.859c-6.14,101.911 10.504,203.622 44.42,300.369c10.121,28.805 15.45,58.74 15.45,89.376Z" style="fill:#ffce45;fill-rule:nonzero;"/><path d="M967.789,1556.48c-363.609,0 -663.003,-166.445 -702.184,-380.453c-2.879,15.696 -4.4,31.629 -4.4,47.79c-0,236.482 316.338,428.189 706.584,428.189c390.247,-0 706.585,-191.707 706.585,-428.189c-0,-16.161 -1.521,-32.094 -4.391,-47.79c-39.19,214.008 -338.585,380.453 -702.194,380.453Z" style="fill:#d4ac2b;fill-rule:nonzero;"/><path d="M1440.75,1367.59c-0,35.611 -14.986,69.435 -41.905,99.917c-74.51,84.502 -240.6,143.252 -433.573,143.252c-196.052,-0 -364.365,-60.663 -437.098,-147.288c-24.706,-29.443 -38.38,-61.837 -38.38,-95.881c0,-44.811 23.75,-86.844 65.135,-122.882c-30.836,-33.615 -57.974,-73.216 -79.637,-117.89c-94.187,-194.322 -48.51,-410.998 102.084,-483.996c108.726,-52.754 242.476,-16.06 343.868,81.552c20.233,19.54 52.318,19.54 72.596,0.082c101.311,-97.175 234.66,-133.605 343.213,-80.978c150.594,72.988 196.271,289.711 102.093,484.032c-19.932,41.122 -44.556,77.944 -72.386,109.774c46.852,37.687 73.99,82.37 73.99,130.306Z" style="fill:#f9e0ae;fill-rule:nonzero;"/><path d="M1456.06,802.642c-25.434,-54.604 -65.618,-98.559 -119.001,-124.431c-33.743,-16.361 -69.873,-24.104 -106.704,-24.104c-81.642,-0 -166.691,38.106 -236.49,105.081c-10.149,9.73 -23.221,14.594 -36.294,14.594c-13.1,0 -26.2,-4.883 -36.339,-14.657c-69.936,-67.349 -155.24,-105.692 -237.138,-105.692c-36.83,-0 -72.978,7.761 -106.712,24.131c-53.365,25.863 -93.53,69.781 -118.974,124.349c17.363,-50.231 46.342,-93.12 85.842,-123.419c61.555,-19.204 126.234,-32.714 186.295,-42.215c62.84,11.214 126.618,44.492 181.65,97.493c12.717,12.243 29.042,18.374 45.376,18.374c16.298,0 32.595,-6.103 45.303,-18.292c68.706,-65.91 150.986,-101.128 228.037,-101.128c35.182,-0 69.28,7.351 100.472,22.474c59.706,28.942 102.067,81.943 124.677,147.442Z" style="fill:#d4ac2b;"/><path d="M691.917,807.571c-52.755,-4.018 -101.657,48.846 -109.218,118.063c-7.561,69.216 29.079,128.585 81.843,132.602c52.755,4.018 101.656,-48.847 109.217,-118.063c7.561,-69.225 -29.078,-128.594 -81.842,-132.602Z" style="fill:#35374d;fill-rule:nonzero;"/><path d="M688.118,836.576c-16.844,6.596 -24.159,30.227 -16.343,52.792c7.807,22.556 27.794,35.501 44.629,28.896c16.835,-6.596 24.159,-30.227 16.343,-52.782c-7.807,-22.565 -27.794,-35.501 -44.629,-28.906Z" style="fill:#fff;fill-rule:nonzero;"/><path d="M631.036,986.032c-7.98,5.438 -8.991,18.42 -2.259,28.996c6.732,10.577 18.657,14.74 26.628,9.301c7.98,-5.438 8.991,-18.42 2.259,-28.996c-6.723,-10.577 -18.657,-14.74 -26.628,-9.301Z" style="fill:#b199c5;fill-rule:nonzero;"/><path d="M1220.35,807.571c52.764,-4.018 101.656,48.846 109.217,118.063c7.562,69.216 -29.078,128.585 -81.842,132.602c-52.755,4.018 -101.657,-48.847 -109.218,-118.063c-7.561,-69.225 29.079,-128.594 81.843,-132.602Z" style="fill:#35374d;fill-rule:nonzero;"/><path d="M1224.15,836.576c16.844,6.596 24.159,30.227 16.343,52.792c-7.807,22.556 -27.794,35.501 -44.629,28.896c-16.835,-6.596 -24.159,-30.227 -16.343,-52.782c7.807,-22.565 27.794,-35.501 44.629,-28.906Z" style="fill:#fff;fill-rule:nonzero;"/><path d="M1281.23,986.032c7.98,5.438 8.991,18.42 2.259,28.996c-6.732,10.577 -18.657,14.74 -26.628,9.301c-7.98,-5.438 -8.991,-18.42 -2.259,-28.996c6.723,-10.577 18.657,-14.74 26.628,-9.301Z" style="fill:#b199c5;fill-rule:nonzero;"/><path d="M1398.85,1467.5c-74.51,84.502 -240.609,143.252 -433.573,143.252c-196.052,-0 -364.365,-60.663 -437.098,-147.288c120.632,58.23 273.395,93.011 439.612,93.011c162.319,0 311.775,-33.132 431.059,-88.975Z" style="fill:#d4ac2b;fill-rule:nonzero;"/><path d="M683.59,632.043c-35.2,-0 -69.307,7.351 -100.526,22.501c-143.863,69.726 -186.952,279.042 -96.054,466.586c20.67,42.607 46.751,81.223 77.524,114.766c2.369,2.587 3.599,6.031 3.407,9.538c-0.2,3.507 -1.803,6.787 -4.454,9.091c-39.692,34.563 -60.663,73.662 -60.663,113.062c0,59.824 46.934,116.77 132.156,160.351c88.001,45.003 205.308,69.791 330.295,69.791c124.987,-0 242.285,-24.788 330.295,-69.791c85.222,-43.581 132.156,-100.527 132.156,-160.351c-0,-42.224 -23.905,-83.773 -69.135,-120.158c-2.76,-2.223 -4.5,-5.484 -4.81,-9.019c-0.309,-3.525 0.838,-7.042 3.171,-9.711c27.784,-31.766 51.497,-67.722 70.473,-106.876c90.907,-187.562 47.818,-396.897 -96.045,-466.623c-99.506,-48.237 -228.438,-17.354 -328.509,78.654c-25.443,24.414 -65.272,24.378 -90.679,-0.082c-68.834,-66.301 -151.359,-101.729 -228.602,-101.729Zm281.685,991.74c-129.041,-0 -250.556,-25.799 -342.155,-72.642c-94.378,-48.273 -146.35,-113.454 -146.35,-183.554c0,-43.672 20.643,-86.26 59.861,-123.82c-28.714,-33.069 -53.256,-70.446 -73.061,-111.277c-97.165,-200.47 -48.655,-425.392 108.134,-501.395c109.655,-53.192 250.401,-20.26 358.562,83.911c15.277,14.721 39.254,14.748 54.568,0.045c108.024,-103.633 248.516,-136.328 357.906,-83.3c156.798,76.003 205.299,300.943 108.125,501.441c-18.001,37.14 -40.065,71.585 -65.691,102.549c44.939,39.537 68.606,84.903 68.606,131.846c-0,70.1 -51.972,135.281 -146.349,183.554c-91.609,46.843 -213.116,72.642 -342.156,72.642Z" style="fill:#232323;fill-rule:nonzero;"/><path d="M967.653,166.995c-281.812,2.226 -599.572,171.187 -630.646,536.897c-2.869,33.825 -2.951,69.161 -0.227,105.018c0.601,8.08 1.157,16.115 1.64,24.122c6.067,100.618 -9.21,203.951 -45.386,307.129c-9.592,27.347 -14.457,55.497 -14.457,83.655c0,226.525 309.178,410.826 689.212,410.826c380.034,-0 689.213,-184.301 689.213,-410.826c-0,-28.158 -4.856,-56.308 -14.458,-83.655c-36.175,-103.178 -51.443,-206.511 -45.376,-307.129c0.483,-8.007 1.03,-16.042 1.64,-24.122c2.724,-35.884 2.642,-71.221 -0.228,-105.018c-31.073,-365.71 -348.842,-534.671 -630.927,-536.897Zm0.136,1502.38c-191.861,0 -372.509,-45.43 -508.628,-127.929c-138.852,-84.147 -215.32,-196.954 -215.32,-317.632c0,-32.085 5.521,-64.096 16.407,-95.152c34.645,-98.796 49.275,-197.555 43.49,-293.545c-0.473,-7.826 -1.002,-15.687 -1.603,-23.586c-2.86,-37.705 -2.769,-74.91 0.255,-110.584c14.822,-174.362 92.693,-320.91 225.204,-423.817c118.628,-92.12 274.907,-143.572 440.059,-144.874c165.425,1.302 321.713,52.754 440.341,144.874c132.511,102.907 210.382,249.455 225.204,423.817c3.024,35.647 3.106,72.851 0.255,110.584c-0.601,7.899 -1.139,15.76 -1.604,23.586c-5.793,95.99 8.837,194.749 43.481,293.545c10.887,31.056 16.416,63.067 16.416,95.152c0,120.678 -76.467,233.485 -215.319,317.632c-136.128,82.499 -316.767,127.929 -508.638,127.929Z" style="fill:#232323;fill-rule:nonzero;"/><path d="M448.603,1201.09c0.109,0.146 -0,0.793 -0.401,1.877c0.146,-1.33 0.291,-1.986 0.401,-1.877Z" style="fill:#f4dd7a;fill-rule:nonzero;"/><path d="M1068.82,987.535c-4.719,-0 -9.337,-2.314 -12.116,-6.55c-26.728,-40.848 -62.174,-63.341 -99.816,-63.341c-37.633,0 -73.079,22.493 -99.807,63.341c-4.373,6.687 -13.337,8.563 -20.024,4.181c-6.686,-4.372 -8.563,-13.345 -4.19,-20.032c32.258,-49.284 76.304,-76.431 124.021,-76.431c47.735,-0 91.781,27.147 124.03,76.431c4.382,6.687 2.505,15.66 -4.181,20.032c-2.442,1.604 -5.193,2.369 -7.917,2.369Z" style="fill:#232323;fill-rule:nonzero;"/><path d="M864.912,956.507c0,106.02 -86.224,192.253 -192.244,192.253c-17.819,0 -35.055,-2.45 -51.434,-7.023c-7.279,-1.986 -14.394,-4.437 -21.317,-7.279c-19.195,-7.862 -36.849,-18.766 -52.354,-32.085c-14.294,-12.271 -26.765,-26.564 -36.913,-42.497c-19.158,-29.862 -30.263,-65.336 -30.263,-103.369c-0,-106.011 86.27,-192.272 192.281,-192.272c3.298,0 6.595,0.091 9.893,0.255c41.422,2.095 79.447,17.4 109.892,41.751c10.121,8.062 19.394,17.135 27.684,27.056c14.13,16.908 25.426,36.229 33.124,57.319c7.543,20.56 11.651,42.752 11.651,65.891Z" style="fill:#232323;fill-rule:nonzero;"/><path d="M547.563,1102.37c-14.294,-12.271 -26.765,-26.564 -36.913,-42.497l171.911,-295.386c41.422,2.095 79.447,17.4 109.892,41.751l-244.89,296.132Z" style="fill:#919191;fill-rule:nonzero;"/><path d="M621.234,1141.74c-7.279,-1.986 -14.394,-4.437 -21.317,-7.279l220.22,-301.161c14.13,16.908 25.426,36.229 33.124,57.319l-232.027,251.121Z" style="fill:#919191;fill-rule:nonzero;"/><path d="M672.659,775.012c-100.081,0 -181.495,81.414 -181.495,181.495c-0,100.071 81.414,181.486 181.495,181.486c100.071,-0 181.485,-81.415 181.485,-181.486c0,-100.081 -81.414,-181.495 -181.485,-181.495Zm-0,384.516c-111.951,0 -203.031,-91.08 -203.031,-203.021c0,-111.951 91.08,-203.031 203.031,-203.031c111.95,0 203.021,91.08 203.021,203.031c0,111.941 -91.071,203.021 -203.021,203.021Z" style="fill:#232323;fill-rule:nonzero;"/><path d="M1433.38,956.507c0,106.02 -86.234,192.253 -192.244,192.253c-17.819,0 -35.055,-2.45 -51.444,-7.023c-7.269,-1.986 -14.393,-4.437 -21.308,-7.279c-19.194,-7.862 -36.849,-18.766 -52.354,-32.085c-14.293,-12.271 -26.764,-26.564 -36.913,-42.497c-19.158,-29.862 -30.262,-65.336 -30.262,-103.369c-0,-106.011 86.27,-192.272 192.281,-192.272c3.297,0 6.595,0.091 9.893,0.255c41.413,2.095 79.446,17.4 109.892,41.751c10.12,8.062 19.394,17.135 27.684,27.056c14.129,16.908 25.426,36.229 33.124,57.319c7.542,20.56 11.651,42.752 11.651,65.891Z" style="fill:#232323;fill-rule:nonzero;"/><path d="M1116.03,1102.37c-14.293,-12.271 -26.764,-26.564 -36.913,-42.497l171.912,-295.386c41.413,2.095 79.446,17.4 109.892,41.751l-244.891,296.132Z" style="fill:#919191;fill-rule:nonzero;"/><path d="M1189.69,1141.74c-7.269,-1.986 -14.393,-4.437 -21.308,-7.279l220.221,-301.161c14.129,16.908 25.426,36.229 33.124,57.319l-232.037,251.121Z" style="fill:#919191;fill-rule:nonzero;"/><path d="M1241.13,775.012c-100.08,0 -181.495,81.414 -181.495,181.495c0,100.071 81.415,181.486 181.495,181.486c100.072,-0 181.486,-81.415 181.486,-181.486c0,-100.081 -81.414,-181.495 -181.486,-181.495Zm0,384.516c-111.959,0 -203.03,-91.08 -203.03,-203.021c-0,-111.951 91.071,-203.031 203.03,-203.031c111.951,0 203.022,91.08 203.022,203.031c-0,111.941 -91.071,203.021 -203.022,203.021Z" style="fill:#232323;fill-rule:nonzero;"/><path d="M982.611,1340.31c52.436,5.511 112.233,1.922 155.058,-31.174c13.401,-10.285 24.232,-23.376 33.251,-38.17c4.5,-7.889 14.703,-10.541 22.456,-5.785c7.151,4.363 9.674,13.446 6.131,20.834c-9.356,19.331 -23.231,37.323 -40.958,50.396c-17.518,13.336 -37.961,21.89 -58.503,26.655c-40.858,8.927 -82.116,5.757 -121.498,-7.124c-9.356,-3.289 -5.703,-17.3 4.063,-15.632Z" style="fill:#232323;fill-rule:nonzero;"/><path d="M1140.52,1249.49c41.578,-15.186 90.762,20.834 81.47,66.027c-1.002,6.997 -10.713,9.329 -14.831,3.708c-5.311,-6.75 -8.6,-14.402 -13.802,-20.633c-12.653,-18.184 -32.695,-25.982 -53.055,-33.607c-7.006,-2.514 -6.741,-13.227 0.218,-15.495Z" style="fill:#232323;fill-rule:nonzero;"/><path d="M1053.4,1138.66c13.51,-11.123 24.888,-26.984 24.442,-44.602c-1.795,-37.04 -43.436,-49.312 -72.414,-30.828c-15.195,8.318 -27.63,21.071 -39.755,33.734c-2.724,3.334 -6.45,4.564 -10.513,4.163c-3.471,-0.054 -6.495,-1.676 -8.545,-4.181c-16.288,-19.386 -36.74,-38.662 -62.675,-41.987c-35.875,-4.901 -61.665,31.319 -42.716,63.222c4.19,7.77 10.449,14.639 17.427,20.916c1.157,1.057 1.257,2.851 0.2,4.008c-0.911,1.011 -2.368,1.212 -3.507,0.574c-8.618,-4.874 -16.616,-11.323 -23.103,-19.513c-22.656,-27.339 -11.87,-69.863 20.589,-84.357c20.36,-9.82 45.066,-7.069 64.415,3.106c19.358,9.62 34.253,24.706 46.46,40.74l-8.545,-4.182l1.941,-0.027l-8.564,4.19c5.794,-8.326 12.135,-16.461 19.978,-23.403c30.937,-30.964 89.996,-39.983 115.557,2.296c18.367,30.372 1.585,65.463 -26.891,81.533c-3.525,2.113 -6.914,-2.888 -3.781,-5.402Z" style="fill:#232323;fill-rule:nonzero;"/><path d="M1033.93,1111.52c-1.458,-4.208 -6.068,-4.764 -8.081,-2.168c-12.353,13.519 -27.384,24.533 -43.035,33.962c-7.169,4.436 -16.57,9.055 -25.689,8.718c-9.119,0.246 -18.439,-4.409 -25.562,-8.919c-15.587,-9.538 -30.464,-20.679 -42.862,-34.125c-2.305,-2.697 -7.179,-1.84 -8.436,2.532c-0.391,1.713 -3.052,1.622 -3.38,-0.063c-2.204,-9.201 10.404,-15.46 17.619,-9.766l4.992,3.817c12.134,9.848 24.833,18.939 38.507,26.464c6.532,3.662 11.916,6.787 19.122,6.577c7.215,0.11 12.508,-3.051 19.012,-6.768c6.696,-3.918 13.355,-7.926 19.695,-12.444c6.405,-4.437 12.444,-9.356 18.593,-14.212c3.936,-3.17 8.755,-7.087 14.13,-5.839c5.648,0.72 10.595,6.823 8.882,12.171c-0.483,1.703 -2.988,1.703 -3.507,0.063Z" style="fill:#232323;fill-rule:nonzero;"/><path d="M861.733,1040.27c12.763,-22.474 38.088,-37.952 63.687,-38.034c4.482,-0.182 5.156,6.532 0.728,7.233c-11.141,1.822 -21.745,5.894 -30.354,12.535c-8.736,6.641 -15.268,15.77 -19.877,25.836c-5.02,10.03 -19.723,2.214 -14.184,-7.57Z" style="fill:#232323;fill-rule:nonzero;"/><path d="M1034.79,1049.21c-7.588,-20.688 -24.943,-35.4 -46.934,-39.737c-2.049,-0.346 -3.425,-2.332 -2.979,-4.372c0.392,-1.822 2.077,-3.016 3.881,-2.861c12.153,1.066 24.533,4.682 35.164,11.697c10.841,7.033 19.349,17.282 25.426,28.423c5.119,10.075 -10.049,17.245 -14.558,6.85Z" style="fill:#232323;fill-rule:nonzero;"/><path d="M1530.48,543.951c-9.984,-15.551 -25.015,-27.804 -43.134,-34.363c-103.989,-37.701 -215.666,-58.724 -299.067,-62.548l-0.045,0c50.259,-221.011 322.524,-130.791 342.246,96.911Zm44.702,-126.143c-109.29,-207.894 -330.95,-387.337 -711.558,-336.08c-54.732,9.426 -106.029,22.848 -153.637,39.963c-300.16,107.596 -455.446,359.796 -419.653,660.736c1.166,10.121 12.244,16.544 21.326,11.816c0.128,-0.046 0.219,-0.091 0.301,-0.137c3.343,-1.776 6.039,-4.509 7.907,-7.816c7.434,-12.9 17.463,-24.105 30.664,-30.928c-0,0 4.126,-3.434 10.084,-7.688c204.151,-145.867 615.951,-149.037 615.951,-149.037c58.813,-0.428 111.541,-0.738 160.843,1.129c107.906,4.173 199.642,18.639 303.94,64.033c32.668,14.203 62.293,29.626 88.912,45.258c47.398,27.757 85.268,56.162 113.554,79.583c1.257,-0.528 2.468,-1.047 3.735,-1.567c7.989,-3.388 13.245,-11.123 13.51,-19.804c2.823,-99.999 -22.811,-229.44 -85.879,-349.461Z" style="fill:#fff;fill-rule:nonzero;"/><path d="M981.6,609.459c-0.246,0 -0.492,-0.009 -0.747,-0.027c-5.985,-0.41 -10.504,-5.593 -10.094,-11.578c13.164,-191.66 -11.159,-438.904 -123.019,-504.928c-5.156,-3.049 -6.878,-9.709 -3.826,-14.872c3.043,-5.169 9.693,-6.881 14.867,-3.833c120.377,71.056 147.224,327.289 133.65,525.126c-0.4,5.731 -5.165,10.112 -10.831,10.112Z" style="fill:#682c0e;fill-rule:nonzero;"/><path d="M414.159,725.755c-5.503,0 -10.222,-4.163 -10.796,-9.756c-13.4,-130.908 2.706,-253.321 46.597,-354.018c49.02,-112.487 129.587,-194.662 239.452,-244.241c5.465,-2.469 11.897,-0.038 14.366,5.431c2.469,5.467 0.036,11.897 -5.439,14.363c-201.901,91.116 -301.535,301.154 -273.367,576.251c0.61,5.967 -3.735,11.305 -9.693,11.916c-0.383,0.036 -0.756,0.054 -1.12,0.054Z" style="fill:#fb132b;fill-rule:nonzero;"/><path d="M1661.07,767.269l0.045,-0l-0.045,-0Zm-795.133,-670.511c-381.974,65.828 -601.958,334.096 -560.536,683.556c0.574,-0.465 0.984,-1.048 1.249,-1.512c9.419,-16.362 21.326,-28.487 35.455,-36.175c1.776,-1.422 5.265,-4.164 9.675,-7.316c205.708,-146.977 607.67,-151.742 624.678,-151.878c64.443,-0.474 113.735,-0.665 161.535,1.138c124.285,4.81 213.935,23.722 309.433,65.281c30.846,13.419 61.309,28.924 90.543,46.096c37.131,21.745 73.097,46.624 107.049,74.035c0.519,-0.956 0.82,-2.04 0.856,-3.179c4.419,-156.479 -63.158,-379.174 -224.101,-523.956c-141.712,-127.477 -328.737,-176.635 -555.836,-146.09Zm-560.709,714.247c-4.782,-0 -9.583,-1.157 -13.974,-3.48c-8.882,-4.71 -14.867,-13.446 -16.015,-23.358c-21.089,-177.277 21.936,-338.627 124.449,-466.565c104.262,-130.121 263.802,-216.867 461.367,-250.858c0.182,-0.031 0.364,-0.057 0.546,-0.084c123.693,-16.664 237.939,-10.017 339.532,19.749c90.725,26.581 171.802,71.607 240.973,133.834c168.176,151.289 238.787,383.969 234.159,547.454l-0,0.027c-0.447,14.576 -9.383,27.667 -22.775,33.342l-3.835,1.612c-5.211,2.16 -11.178,1.267 -15.532,-2.331c-35.173,-29.125 -72.697,-55.425 -111.532,-78.172c-28.204,-16.562 -57.565,-31.511 -87.299,-44.438c-91.772,-39.946 -178.243,-58.129 -298.456,-62.775c-47.17,-1.786 -96.127,-1.594 -160.15,-1.121c-4.072,0.037 -409.377,4.847 -607.224,146.203c-5.366,3.836 -9.165,6.988 -9.21,7.015c-0.839,0.702 -1.759,1.312 -2.733,1.813c-9.511,4.91 -17.737,13.328 -24.469,25.006c-3.28,5.803 -8.117,10.559 -13.929,13.647c-0.21,0.118 -0.41,0.219 -0.629,0.319c-0.127,0.063 -0.273,0.127 -0.428,0.2c-4.036,1.977 -8.426,2.961 -12.836,2.961Z" style="fill:#232323;fill-rule:nonzero;"/><path d="M1530.27,709.057c-26.619,-15.632 -56.244,-31.055 -88.912,-45.258c-104.298,-45.394 -196.034,-59.86 -303.94,-64.033c-73.972,-18.593 -86.962,-153.16 38.972,-153.16c3.862,0.087 7.816,0.261 11.852,0.434l0.045,0c83.401,3.824 195.078,24.847 299.067,62.548c18.119,6.559 33.15,18.812 43.134,34.363c7.953,12.38 12.69,26.846 13.255,42.178c1.604,41.395 -3.871,82.316 -13.473,122.928Z" style="fill:#fc8621;fill-rule:nonzero;"/><path d="M1527.95,583.178c-1.758,-3.972 -3.817,-7.789 -6.149,-11.424c-9.994,-15.551 -25.025,-27.803 -43.135,-34.362c-103.989,-37.706 -215.675,-58.729 -299.075,-62.55l-0.037,-0c-4.045,-0.174 -7.998,-0.348 -11.861,-0.435c-2.924,0 -5.766,0.072 -8.536,0.214c3.672,-4.583 7.889,-8.772 12.326,-12.744c1.503,-0.047 3.015,-0.07 4.555,-0.07c3.598,0.08 7.279,0.24 11.041,0.402l0.51,0.02c39.218,1.798 82.471,7.256 126.717,15.738c0,0.002 0.01,0.002 0.01,0.004c0.182,0.035 0.373,0.07 0.555,0.106c0.009,0.002 0.028,0.006 0.046,0.008c0.173,0.034 0.355,0.068 0.528,0.103c0.018,0.004 0.046,0.008 0.064,0.012c0.173,0.033 0.355,0.068 0.538,0.103c0.018,0.003 0.027,0.007 0.045,0.01c0.182,0.034 0.364,0.07 0.537,0.104c0.019,0.003 0.037,0.007 0.055,0.01c0.173,0.034 0.355,0.07 0.529,0.102c0.018,0.004 0.045,0.01 0.063,0.014c0.173,0.032 0.337,0.065 0.501,0.098c0.037,0.006 0.064,0.012 0.101,0.018c0.164,0.033 0.337,0.066 0.501,0.098c0.027,0.007 0.054,0.011 0.082,0.017c0.154,0.031 0.318,0.061 0.473,0.092c0.037,0.008 0.091,0.017 0.128,0.026c0.155,0.03 0.3,0.058 0.455,0.089c0.046,0.009 0.101,0.019 0.137,0.027c0.137,0.027 0.282,0.055 0.419,0.082c0.055,0.011 0.128,0.024 0.182,0.037c0.137,0.026 0.274,0.053 0.401,0.079c0.064,0.012 0.128,0.025 0.191,0.037c0.128,0.026 0.256,0.051 0.383,0.076c0.073,0.014 0.146,0.029 0.209,0.042c0.137,0.028 0.265,0.052 0.401,0.079c0.064,0.012 0.128,0.025 0.192,0.038c0.127,0.027 0.264,0.054 0.401,0.081c0.063,0.012 0.127,0.024 0.191,0.037c0.127,0.026 0.255,0.051 0.382,0.077c0.064,0.013 0.146,0.029 0.21,0.042c0.128,0.025 0.246,0.049 0.364,0.073c0.073,0.015 0.155,0.031 0.228,0.046c0.128,0.026 0.264,0.052 0.392,0.078c0.064,0.014 0.127,0.027 0.2,0.04c0.128,0.026 0.246,0.052 0.383,0.077c0.064,0.014 0.146,0.03 0.209,0.044c0.119,0.023 0.228,0.044 0.347,0.068c0.082,0.018 0.173,0.036 0.255,0.054c0.1,0.02 0.2,0.039 0.3,0.059c0.091,0.02 0.201,0.041 0.301,0.061c0.091,0.019 0.182,0.037 0.273,0.056c0.11,0.023 0.21,0.044 0.328,0.066c0.073,0.016 0.155,0.033 0.237,0.049c0.118,0.024 0.237,0.048 0.355,0.072c0.073,0.016 0.146,0.031 0.219,0.047c0.127,0.024 0.255,0.051 0.373,0.075c0.073,0.015 0.137,0.028 0.201,0.041c0.127,0.027 0.273,0.056 0.401,0.082c0.054,0.011 0.118,0.024 0.173,0.036c0.136,0.029 0.282,0.058 0.419,0.087c0.054,0.011 0.1,0.021 0.164,0.032c0.136,0.029 0.282,0.059 0.428,0.088c0.054,0.013 0.118,0.026 0.182,0.039c0.137,0.029 0.273,0.056 0.41,0.085c0.055,0.011 0.1,0.019 0.146,0.03c0.155,0.032 0.3,0.061 0.455,0.094c0.046,0.01 0.091,0.02 0.146,0.03c0.146,0.031 0.291,0.061 0.437,0.092c0.055,0.01 0.1,0.021 0.155,0.031c0.146,0.031 0.292,0.063 0.447,0.093c0.045,0.011 0.082,0.018 0.127,0.028c0.155,0.033 0.319,0.066 0.474,0.098c0.027,0.006 0.054,0.012 0.082,0.019c0.173,0.035 0.346,0.072 0.51,0.107c0.018,0.003 0.046,0.008 0.064,0.012c0.173,0.037 0.355,0.076 0.528,0.112c0.018,0.004 0.036,0.008 0.055,0.011c0.191,0.039 0.355,0.076 0.546,0.115c0.01,0.002 0.028,0.006 0.037,0.008c0.191,0.039 0.373,0.079 0.555,0.118c0.019,0.003 0.01,0.002 0.028,0.004c0.191,0.04 0.373,0.082 0.565,0.122c0.009,0.001 0.009,0.001 0.018,0.002c0.191,0.041 0.383,0.083 0.574,0.123c0.009,0.002 0.009,0.002 0.018,0.004c49.393,10.511 99.397,24.624 145.848,41.459c14.585,5.283 27.193,15.332 35.519,28.286c0.037,0.063 0.073,0.118 0.11,0.173c5.52,8.645 9.018,18.383 10.266,28.486c-0.027,0.784 -0.063,1.567 -0.118,2.351Z" style="fill:#fff;fill-rule:nonzero;"/><path d="M1139.69,584.644c123.401,4.91 212.659,23.841 307.729,65.208c24.515,10.668 48.792,22.656 72.405,35.747c7.069,-35.382 9.92,-67.895 8.718,-98.878c-0.455,-12.262 -4.2,-24.204 -10.85,-34.553c-8.326,-12.954 -20.934,-23.003 -35.519,-28.286c-95.134,-34.49 -205.171,-57.529 -294.393,-61.646l-0.191,-0.007l-0.51,-0.02c-3.762,-0.162 -7.443,-0.322 -11.041,-0.402c-45.012,0.004 -74.582,20.088 -78.746,53.73c-3.315,26.856 11.943,60.544 42.398,69.107Zm390.574,139.617c-2.669,0 -5.329,-0.701 -7.698,-2.095c-28.186,-16.553 -57.547,-31.502 -87.281,-44.429c-91.772,-39.946 -178.243,-58.129 -298.456,-62.775c-1.057,-0.046 -2.104,-0.192 -3.125,-0.447c-43.116,-10.84 -72.368,-55.952 -66.583,-102.713c4.81,-38.866 36.038,-80.399 109.263,-80.399c4.145,0.09 8.026,0.256 11.997,0.428l0.347,0.013c0.082,0.003 0.173,0.007 0.255,0.009c92.155,4.226 205.627,27.943 303.548,63.442c20.807,7.543 38.835,21.9 50.742,40.439c9.592,14.931 15.003,32.166 15.659,49.83c1.531,39.482 -3.006,81.032 -13.874,126.991c-1.102,4.692 -4.382,8.581 -8.818,10.486c-1.913,0.819 -3.945,1.22 -5.976,1.22Z" style="fill:#232323;fill-rule:nonzero;"/><path d="M1200.27,520.447c-0,10.795 -8.755,19.55 -19.55,19.55c-10.795,0 -19.54,-8.755 -19.54,-19.55c-0,-10.795 8.745,-19.54 19.54,-19.54c10.795,-0 19.55,8.745 19.55,19.54Z" style="fill:#232323;fill-rule:nonzero;"/><path d="M1295.83,529.138c-0,10.795 -8.746,19.55 -19.55,19.55c-10.795,-0 -19.54,-8.755 -19.54,-19.55c-0,-10.795 8.745,-19.55 19.54,-19.55c10.804,0 19.55,8.755 19.55,19.55Z" style="fill:#232323;fill-rule:nonzero;"/><path d="M1408.78,559.547c0,10.795 -8.754,19.549 -19.549,19.549c-10.795,0 -19.55,-8.754 -19.55,-19.549c-0,-10.796 8.755,-19.55 19.55,-19.55c10.795,0 19.549,8.754 19.549,19.55Z" style="fill:#232323;fill-rule:nonzero;"/><path d="M1499.99,594.291c-0,10.796 -8.755,19.55 -19.55,19.55c-10.795,0 -19.54,-8.754 -19.54,-19.55c-0,-10.795 8.745,-19.54 19.54,-19.54c10.795,-0 19.55,8.745 19.55,19.54Z" style="fill:#232323;fill-rule:nonzero;"/><path d="M1207.72,432.959c88.502,6.341 193.428,29.208 284.809,62.336c5.429,1.968 10.677,4.4 15.66,7.252c-25.089,-99.549 -103.424,-162.043 -174.626,-166.934c-60.244,-4.183 -105.365,31.115 -125.843,97.346Zm322.77,126.196c-5.075,0 -9.939,-2.542 -12.8,-6.987c-8.326,-12.954 -20.934,-23.003 -35.519,-28.286c-95.198,-34.513 -205.326,-57.563 -294.584,-61.653c-4.364,-0.2 -8.472,-2.271 -11.205,-5.704c-2.888,-3.614 -3.99,-8.345 -2.97,-12.855c20.962,-92.197 81.642,-143.929 162.237,-138.394c93.667,6.437 197.819,96.98 209.981,237.363c0.601,6.969 -3.626,13.446 -10.239,15.705c-1.613,0.547 -3.271,0.811 -4.901,0.811Z" style="fill:#232323;fill-rule:nonzero;"/><path d="M305.396,780.314c-27.047,-228.201 57.392,-421.798 225.605,-546.993c-32.786,37.105 -59.861,80.051 -81.041,128.66c-42.543,97.613 -58.986,215.631 -47.744,342.011c-17.783,9.638 -34.7,20.069 -50.441,31.319c-4.41,3.152 -7.899,5.894 -9.675,7.316c-14.129,7.688 -26.036,19.813 -35.455,36.175c-0.265,0.464 -0.675,1.047 -1.249,1.512Zm117.699,-87.108c-19.404,-242.253 62.211,-431.754 226.762,-530.355c13.892,-6.473 28.122,-12.579 42.734,-18.331c-29.379,25.855 -56.845,53.7 -80.95,84.558c-49.211,62.941 -83.792,139.783 -84.484,219.666c-0.255,28.364 4.126,57.856 20.069,81.36c20.761,30.663 58.293,46.478 95.17,50.122c7.27,0.72 14.548,1.038 21.818,1.038c29.625,0 59.25,-5.238 88.647,-9.811c66.229,-10.239 133.359,-16.88 200.298,-16.88c6.632,-0 13.255,0.063 19.878,0.191c-0.365,9.684 -0.82,19.258 -1.367,28.732c-43.599,0.729 -344.469,9.356 -548.575,109.71Zm663.76,-109.865c-13.355,-0.163 -27.138,-0.227 -41.605,-0.227c-16.279,-0 -33.433,0.082 -51.816,0.2c0.519,-9.192 0.956,-18.474 1.293,-27.858c26.692,1.148 53.32,3.462 79.811,7.133c3.243,7.452 7.397,14.439 12.317,20.752Z" style="fill:#e8e6f8;fill-rule:nonzero;"/><path d="M971.67,583.496c0.547,-9.474 1.002,-19.048 1.367,-28.732c7.233,0.146 14.457,0.373 21.69,0.692c-0.337,9.384 -0.774,18.666 -1.293,27.858c-5.548,0.037 -11.206,0.082 -16.981,0.119c-0.793,0.009 -2.405,0.027 -4.783,0.063Z" style="fill:#682c0e;fill-rule:nonzero;"/><path d="M402.216,703.992c-11.242,-126.38 5.201,-244.398 47.744,-342.011c21.18,-48.609 48.255,-91.555 81.041,-128.66c35.893,-26.714 75.602,-50.311 118.856,-70.47c-164.551,98.601 -246.166,288.102 -226.762,530.355c-7.087,3.489 -14.047,7.078 -20.879,10.786Z" style="fill:#682c0e;fill-rule:nonzero;"/><path d="M305.232,803.744c-7.214,0 -13.992,-5.611 -14.894,-13.4c-35.793,-300.943 119.493,-553.143 419.653,-660.739c-5.867,4.901 -11.67,9.871 -17.4,14.915c-14.612,5.752 -28.842,11.858 -42.734,18.331c-43.254,20.159 -82.963,43.756 -118.856,70.47c-168.213,125.195 -252.652,318.792 -225.605,546.993c0.574,-0.465 0.984,-1.048 1.249,-1.512c9.419,-16.362 21.326,-28.487 35.455,-36.175c1.776,-1.422 5.265,-4.164 9.675,-7.316c15.741,-11.25 32.658,-21.681 50.441,-31.319c6.832,-3.708 13.792,-7.297 20.879,-10.786c204.106,-100.354 504.976,-108.981 548.575,-109.71c2.378,-0.036 3.99,-0.054 4.783,-0.063c5.775,-0.037 11.433,-0.082 16.981,-0.119c18.383,-0.118 35.537,-0.2 51.816,-0.2c14.467,-0 28.25,0.064 41.605,0.227c7.543,9.684 16.889,17.792 27.593,23.631c-22.42,-0.555 -45.604,-0.747 -69.781,-0.747c-21.836,0 -44.474,0.155 -68.096,0.328c0,0 -411.8,3.171 -615.951,149.037c-5.958,4.254 -10.084,7.689 -10.084,7.689c-13.201,6.814 -23.23,18.028 -30.664,30.927c-1.868,3.298 -4.564,6.04 -7.907,7.817c-0.082,0.045 -0.173,0.091 -0.301,0.127c-2.086,1.093 -4.282,1.594 -6.432,1.594Z" style="fill:#232323;fill-rule:nonzero;"/><path d="M1645.01,769.983c-31.028,-25.052 -63.732,-47.981 -97.475,-68.341c9.073,-41.66 12.799,-79.748 11.396,-116.078c-0.063,-1.676 -0.173,-3.352 -0.318,-5.019c19.513,-34.608 25.78,-74.774 22.729,-114.637c46.76,104.161 67.002,212.977 64.524,300.896c-0.036,1.139 -0.337,2.223 -0.856,3.179Z" style="fill:#e8e6f8;fill-rule:nonzero;"/><path d="M1643.82,796.548c-26.628,-22.037 -61.765,-48.51 -105.337,-74.701c3.289,-2.113 5.666,-5.429 6.577,-9.292c0.865,-3.671 1.695,-7.306 2.478,-10.913c33.743,20.36 66.447,43.289 97.475,68.341c0.519,-0.956 0.82,-2.04 0.856,-3.179c2.478,-87.919 -17.764,-196.735 -64.524,-300.896c-1.039,-13.505 -3.143,-26.976 -6.159,-40.187c63.068,120.015 88.702,249.466 85.879,349.455c-0.265,8.691 -5.521,16.425 -13.51,19.814c-1.267,0.519 -2.478,1.038 -3.735,1.558Zm17.245,-29.279l0.045,-0l-0.045,-0Z" style="fill:#232323;fill-rule:nonzero;"/><path d="M1519.83,685.599c-23.613,-13.091 -47.89,-25.079 -72.405,-35.747c-95.07,-41.367 -184.328,-60.298 -307.729,-65.208c-30.455,-8.563 -45.713,-42.251 -42.398,-69.107c1.267,-10.23 4.883,-19.203 10.568,-26.745c13.018,-7.879 29.971,-13.079 51.297,-14.171c-2.915,3.649 -5.484,7.546 -7.534,11.783c-6.823,14.029 -6.212,33.014 5.603,43.217c3.434,2.961 7.479,4.956 11.761,6.459c3.27,2.459 7.333,3.917 11.733,3.917c0.811,0 1.613,-0.046 2.405,-0.146c93.74,21.845 187.435,43.655 281.175,65.463c3.516,5.147 9.437,8.527 16.142,8.527c3.571,0 6.906,-0.956 9.784,-2.623c3.526,0.655 7.079,1.111 10.559,1.111c4.591,-0 9.055,-0.793 13.154,-2.952c9.538,-5.047 13.228,-15.076 14.011,-26.199c0.155,0.346 0.31,0.701 0.455,1.047c0.064,0.829 0.11,1.658 0.137,2.496c1.202,30.983 -1.649,63.496 -8.718,98.878Z" style="fill:#c24914;fill-rule:nonzero;"/><path d="M1528.41,584.225c-0.145,-0.346 -0.3,-0.701 -0.455,-1.047c0.055,-0.784 0.091,-1.567 0.118,-2.351c0.146,1.13 0.255,2.268 0.337,3.398Zm-420.545,-95.433c12.371,-16.409 34.535,-26.01 63.623,-26.915c-4.437,3.972 -8.654,8.161 -12.326,12.744c-21.326,1.092 -38.279,6.292 -51.297,14.171Z" style="fill:#c24914;fill-rule:nonzero;"/><path d="M1538.48,721.847c-2.706,-1.621 -5.439,-3.252 -8.217,-4.874c-26.619,-15.641 -56.244,-31.055 -88.912,-45.266c-104.298,-45.385 -196.034,-59.852 -303.94,-64.024c-7.57,-0.282 -15.222,-0.519 -22.966,-0.711c-10.704,-5.839 -20.05,-13.947 -27.593,-23.631c-4.92,-6.313 -9.074,-13.3 -12.317,-20.752c2.633,0.365 5.257,0.738 7.889,1.13c-10.822,-27.402 -0.911,-60.289 20.024,-80.963c18.848,-18.579 45.139,-28.109 71.639,-30.199c0.556,1.415 1.321,2.754 2.296,3.968c0.173,0.223 0.355,0.441 0.547,0.653c-1.841,1.538 -3.663,3.101 -5.448,4.699c-29.088,0.905 -51.252,10.506 -63.623,26.915c-5.685,7.542 -9.301,16.515 -10.568,26.745c-3.315,26.856 11.943,60.544 42.398,69.107c123.401,4.91 212.659,23.841 307.729,65.208c24.515,10.668 48.792,22.656 72.405,35.747c7.069,-35.382 9.92,-67.895 8.718,-98.878c-0.027,-0.838 -0.073,-1.667 -0.137,-2.496c-0.082,-1.13 -0.191,-2.268 -0.337,-3.398c0.255,-7.424 -0.665,-15.204 -1.931,-22.228c10.777,7.379 21.59,14.722 32.413,22.064c0.018,-0.045 0.045,-0.082 0.064,-0.118c0.145,1.667 0.255,3.343 0.318,5.019c1.403,36.33 -2.323,74.418 -11.396,116.078c-0.783,3.607 -1.613,7.242 -2.478,10.913c-0.911,3.863 -3.288,7.179 -6.577,9.292Z" style="fill:#232323;fill-rule:nonzero;"/><path d="M1180.72,539.997c-4.4,0 -8.463,-1.458 -11.733,-3.917c3.89,1.375 7.98,2.341 11.997,3.27c0.711,0.173 1.422,0.337 2.141,0.501c-0.792,0.1 -1.594,0.146 -2.405,0.146Z" style="fill:#303242;fill-rule:nonzero;"/><path d="M1480.44,613.841c-6.705,0 -12.626,-3.38 -16.142,-8.527c6.185,1.44 12.389,2.879 18.574,4.328c2.415,0.564 4.874,1.12 7.352,1.576c-2.878,1.667 -6.213,2.623 -9.784,2.623Z" style="fill:#303242;fill-rule:nonzero;"/><path d="M1176.93,457.178c-0.192,-0.212 -0.374,-0.43 -0.547,-0.653c-0.975,-1.214 -1.74,-2.553 -2.296,-3.968c2.997,-0.236 5.995,-0.377 8.983,-0.425c-2.05,1.663 -4.1,3.339 -6.14,5.046Z" style="fill:#232323;fill-rule:nonzero;"/></svg>